<svg xmlns="http://www.w3.org/2000/svg" xmlns:xlink="http://www.w3.org/1999/xlink" contentStyleType="text/css" data-diagram-type="SEQUENCE" height="616px" preserveAspectRatio="none" style="width:910px;height:616px;background:#FFFFFF;" version="1.1" viewBox="0 0 910 616" width="910px" zoomAndPan="magnify"><title>UC1 - &#1057;&#1092;&#1086;&#1088;&#1084;&#1080;&#1088;&#1086;&#1074;&#1072;&#1090;&#1100; &#1080;&#1090;&#1086;&#1075;&#1086;&#1074;&#1091;&#1102; &#1089;&#1090;&#1072;&#1074;&#1082;&#1091; &#1087;&#1086; &#1076;&#1077;&#1087;&#1086;&#1079;&#1080;&#1090;&#1072;&#1084;</title><defs/><g><text fill="#000000" font-family="sans-serif" font-size="14" font-weight="bold" lengthAdjust="spacing" textLength="422.1602" x="242.7319" y="27.9951">UC1 - &#1057;&#1092;&#1086;&#1088;&#1084;&#1080;&#1088;&#1086;&#1074;&#1072;&#1090;&#1100; &#1080;&#1090;&#1086;&#1075;&#1086;&#1074;&#1091;&#1102; &#1089;&#1090;&#1072;&#1074;&#1082;&#1091; &#1087;&#1086; &#1076;&#1077;&#1087;&#1086;&#1079;&#1080;&#1090;&#1072;&#1084;</text><rect fill="#DDDDDD" height="560.2891" style="stroke:#181818;stroke-width:0.5;" width="452.396" x="385.853" y="43.2969"/><text fill="#000000" font-family="sans-serif" font-size="13" font-weight="bold" lengthAdjust="spacing" textLength="29.5103" x="597.2959" y="55.3638">&#1040;&#1041;&#1057;</text><rect fill="none" height="89.3984" style="stroke:#000000;stroke-width:1.5;" width="778.958" x="65.291" y="387.7891"/><g><title>&#1058;&#1072;&#1081;&#1084;&#1077;&#1088;</title><rect fill="#000000" fill-opacity="0.00000" height="484.8594" width="8" x="31.1455" y="124.7266"/><line style="stroke:#181818;stroke-width:0.5;stroke-dasharray:5.0,5.0;" x1="35" x2="35" y1="124.7266" y2="609.5859"/></g><g><title>&#1057;&#1086;&#1090;&#1088;&#1091;&#1076;&#1085;&#1080;&#1082; &#1086;&#1090;&#1076;&#1077;&#1083;&#1072; &#1082;&#1088;&#1077;&#1076;&#1080;&#1090;&#1086;&#1074;&#1072;&#1085;&#1080;&#1103;</title><rect fill="#000000" fill-opacity="0.00000" height="484.8594" width="8" x="197.519" y="124.7266"/><line style="stroke:#181818;stroke-width:0.5;stroke-dasharray:5.0,5.0;" x1="201.291" x2="201.291" y1="124.7266" y2="609.5859"/></g><g><title>&#1052;&#1080;&#1082;&#1088;&#1086;&#1089;&#1077;&#1088;&#1074;&#1080;&#1089; &#1088;&#1072;&#1089;&#1095;&#1077;&#1090;&#1072; &#1089;&#1090;&#1072;&#1074;&#1086;&#1082;</title><rect fill="#000000" fill-opacity="0.00000" height="484.8594" width="8" x="500.2114" y="124.7266"/><line style="stroke:#181818;stroke-width:0.5;stroke-dasharray:5.0,5.0;" x1="503.853" x2="503.853" y1="124.7266" y2="609.5859"/></g><g><title>&#1050;&#1083;&#1080;&#1077;&#1085;&#1090; &#1040;&#1041;&#1057;</title><rect fill="#000000" fill-opacity="0.00000" height="484.8594" width="8" x="675.2275" y="124.7266"/><line style="stroke:#181818;stroke-width:0.5;stroke-dasharray:5.0,5.0;" x1="678.5698" x2="678.5698" y1="124.7266" y2="609.5859"/></g><g><title>Oracle</title><rect fill="#000000" fill-opacity="0.00000" height="484.8594" width="8" x="804.4717" y="124.7266"/><line style="stroke:#181818;stroke-width:0.5;stroke-dasharray:5.0,5.0;" x1="807.6943" x2="807.6943" y1="124.7266" y2="609.5859"/></g><g><title>Kafka</title><rect fill="#000000" fill-opacity="0.00000" height="484.8594" width="8" x="869.9365" y="124.7266"/><line style="stroke:#181818;stroke-width:0.5;stroke-dasharray:5.0,5.0;" x1="873.249" x2="873.249" y1="124.7266" y2="609.5859"/></g><g class="participant participant-head" data-participant="timer"><text fill="#000000" font-family="sans-serif" font-size="14" lengthAdjust="spacing" textLength="54.291" x="5" y="121.4248">&#1058;&#1072;&#1081;&#1084;&#1077;&#1088;</text><ellipse cx="35.1455" cy="92.4297" fill="#E2E2F0" rx="12" ry="12" style="stroke:#181818;stroke-width:0.5;"/><polygon fill="#181818" points="31.1455,80.4297,37.1455,75.4297,35.1455,80.4297,37.1455,85.4297,31.1455,80.4297" style="stroke:#181818;stroke-width:1;"/></g><g class="participant participant-head" data-participant="credit"><text fill="#000000" font-family="sans-serif" font-size="14" lengthAdjust="spacing" textLength="246.4561" x="75.291" y="121.4248">&#1057;&#1086;&#1090;&#1088;&#1091;&#1076;&#1085;&#1080;&#1082; &#1086;&#1090;&#1076;&#1077;&#1083;&#1072; &#1082;&#1088;&#1077;&#1076;&#1080;&#1090;&#1086;&#1074;&#1072;&#1085;&#1080;&#1103;</text><ellipse cx="201.519" cy="56.9297" fill="#E2E2F0" rx="8" ry="8" style="stroke:#181818;stroke-width:0.5;"/><path d="M201.519,64.9297 L201.519,91.9297 M188.519,72.9297 L214.519,72.9297 M201.519,91.9297 L188.519,106.9297 M201.519,91.9297 L214.519,106.9297" fill="none" style="stroke:#181818;stroke-width:0.5;"/></g><g class="participant participant-head" data-participant="calc"><rect fill="#E2E2F0" height="30.2969" rx="2.5" ry="2.5" style="stroke:#181818;stroke-width:0.5;" width="228.7168" x="389.853" y="93.4297"/><text fill="#000000" font-family="sans-serif" font-size="14" lengthAdjust="spacing" textLength="214.7168" x="396.853" y="113.4248">&#1052;&#1080;&#1082;&#1088;&#1086;&#1089;&#1077;&#1088;&#1074;&#1080;&#1089; &#1088;&#1072;&#1089;&#1095;&#1077;&#1090;&#1072; &#1089;&#1090;&#1072;&#1074;&#1086;&#1082;</text></g><g class="participant participant-head" data-participant="client"><rect fill="#E2E2F0" height="30.2969" rx="2.5" ry="2.5" style="stroke:#181818;stroke-width:0.5;" width="101.3154" x="628.5698" y="93.4297"/><text fill="#000000" font-family="sans-serif" font-size="14" lengthAdjust="spacing" textLength="87.3154" x="635.5698" y="113.4248">&#1050;&#1083;&#1080;&#1077;&#1085;&#1090; &#1040;&#1041;&#1057;</text></g><g class="participant participant-head" data-participant="db"><text fill="#000000" font-family="sans-serif" font-size="14" lengthAdjust="spacing" textLength="45.5547" x="782.6943" y="121.4248">Oracle</text><path d="M790.4717,72.4297 C790.4717,62.4297 808.4717,62.4297 808.4717,62.4297 C808.4717,62.4297 826.4717,62.4297 826.4717,72.4297 L826.4717,98.4297 C826.4717,108.4297 808.4717,108.4297 808.4717,108.4297 C808.4717,108.4297 790.4717,108.4297 790.4717,98.4297 L790.4717,72.4297" fill="#E2E2F0" style="stroke:#181818;stroke-width:1.5;"/><path d="M790.4717,72.4297 C790.4717,82.4297 808.4717,82.4297 808.4717,82.4297 C808.4717,82.4297 826.4717,82.4297 826.4717,72.4297" fill="none" style="stroke:#181818;stroke-width:1.5;"/></g><g class="participant participant-head" data-participant="kafka"><path d="M849.249,98.4297 L898.624,98.4297 C903.624,98.4297 903.624,111.5781 903.624,111.5781 C903.624,111.5781 903.624,124.7266 898.624,124.7266 L849.249,124.7266 C844.249,124.7266 844.249,111.5781 844.249,111.5781 C844.249,111.5781 844.249,98.4297 849.249,98.4297" fill="#E2E2F0" style="stroke:#181818;stroke-width:0.5;"/><path d="M898.624,98.4297 C893.624,98.4297 893.624,111.5781 893.624,111.5781 C893.624,124.7266 898.624,124.7266 898.624,124.7266" fill="none" style="stroke:#181818;stroke-width:0.5;"/><text fill="#000000" font-family="sans-serif" font-size="14" lengthAdjust="spacing" textLength="39.375" x="849.249" y="116.4248">Kafka</text></g><g class="message" data-participant-1="timer" data-participant-2="calc"><polygon fill="#181818" points="492.2114,151.8594,502.2114,155.8594,492.2114,159.8594,496.2114,155.8594" style="stroke:#181818;stroke-width:1;"/><line style="stroke:#181818;stroke-width:1;" x1="35.1455" x2="498.2114" y1="155.8594" y2="155.8594"/><text fill="#000000" font-family="sans-serif" font-size="13" lengthAdjust="spacing" textLength="445.0659" x="42.1455" y="150.7935">&#1047;&#1072;&#1087;&#1091;&#1089;&#1082; &#1089;&#1086;&#1073;&#1099;&#1090;&#1080;&#1103; &#1087;&#1086; &#1088;&#1072;&#1089;&#1095;&#1077;&#1090;&#1091; &#1089;&#1090;&#1072;&#1074;&#1086;&#1082; &#1087;&#1086; &#1076;&#1077;&#1087;&#1086;&#1079;&#1080;&#1090;&#1072;&#1084; &#1087;&#1086; &#1088;&#1072;&#1089;&#1087;&#1080;&#1089;&#1072;&#1085;&#1080;&#1102;</text></g><g class="message" data-participant-1="calc" data-participant-2="db"><polygon fill="#181818" points="796.4717,180.9922,806.4717,184.9922,796.4717,188.9922,800.4717,184.9922" style="stroke:#181818;stroke-width:1;"/><line style="stroke:#181818;stroke-width:1;" x1="504.2114" x2="802.4717" y1="184.9922" y2="184.9922"/><text fill="#000000" font-family="sans-serif" font-size="13" lengthAdjust="spacing" textLength="104.1968" x="511.2114" y="179.9263">&#1047;&#1072;&#1087;&#1088;&#1086;&#1089; &#1076;&#1072;&#1085;&#1085;&#1099;&#1093;</text></g><g class="message" data-participant-1="db" data-participant-2="calc"><polygon fill="#181818" points="515.2114,210.125,505.2114,214.125,515.2114,218.125,511.2114,214.125" style="stroke:#181818;stroke-width:1;"/><line style="stroke:#181818;stroke-width:1;stroke-dasharray:2.0,2.0;" x1="509.2114" x2="807.4717" y1="214.125" y2="214.125"/><text fill="#000000" font-family="sans-serif" font-size="13" lengthAdjust="spacing" textLength="53.3838" x="521.2114" y="209.0591">&#1044;&#1072;&#1085;&#1085;&#1099;&#1077;</text></g><g class="message" data-participant-1="calc" data-participant-2="calc"><line style="stroke:#181818;stroke-width:1;" x1="504.2114" x2="546.2114" y1="243.2578" y2="243.2578"/><line style="stroke:#181818;stroke-width:1;" x1="546.2114" x2="546.2114" y1="243.2578" y2="256.2578"/><line style="stroke:#181818;stroke-width:1;" x1="505.2114" x2="546.2114" y1="256.2578" y2="256.2578"/><polygon fill="#181818" points="515.2114,252.2578,505.2114,256.2578,515.2114,260.2578,511.2114,256.2578" style="stroke:#181818;stroke-width:1;"/><text fill="#000000" font-family="sans-serif" font-size="13" lengthAdjust="spacing" textLength="96.4907" x="511.2114" y="238.1919">&#1056;&#1072;&#1089;&#1095;&#1077;&#1090; &#1089;&#1090;&#1072;&#1074;&#1086;&#1082;</text></g><g class="message" data-participant-1="calc" data-participant-2="db"><polygon fill="#181818" points="796.4717,281.3906,806.4717,285.3906,796.4717,289.3906,800.4717,285.3906" style="stroke:#181818;stroke-width:1;"/><line style="stroke:#181818;stroke-width:1;" x1="504.2114" x2="802.4717" y1="285.3906" y2="285.3906"/><text fill="#000000" font-family="sans-serif" font-size="13" lengthAdjust="spacing" textLength="233.9429" x="511.2114" y="280.3247">&#1057;&#1086;&#1093;&#1088;&#1072;&#1085;&#1077;&#1085;&#1080;&#1077; &#1088;&#1072;&#1089;&#1089;&#1095;&#1080;&#1090;&#1072;&#1085;&#1085;&#1099;&#1093; &#1089;&#1090;&#1072;&#1074;&#1086;&#1082;</text></g><g class="message" data-participant-1="credit" data-participant-2="client"><polygon fill="#181818" points="667.2275,310.5234,677.2275,314.5234,667.2275,318.5234,671.2275,314.5234" style="stroke:#181818;stroke-width:1;"/><line style="stroke:#181818;stroke-width:1;" x1="201.519" x2="673.2275" y1="314.5234" y2="314.5234"/><text fill="#000000" font-family="sans-serif" font-size="13" lengthAdjust="spacing" textLength="218.2705" x="208.519" y="309.4575">&#1055;&#1088;&#1086;&#1089;&#1084;&#1086;&#1090;&#1088; &#1088;&#1072;&#1089;&#1089;&#1095;&#1080;&#1090;&#1072;&#1085;&#1085;&#1099;&#1093; &#1089;&#1090;&#1072;&#1074;&#1086;&#1082;</text></g><g class="message" data-participant-1="client" data-participant-2="db"><polygon fill="#181818" points="796.4717,339.6563,806.4717,343.6563,796.4717,347.6563,800.4717,343.6563" style="stroke:#181818;stroke-width:1;"/><line style="stroke:#181818;stroke-width:1;" x1="679.2275" x2="802.4717" y1="343.6563" y2="343.6563"/><text fill="#000000" font-family="sans-serif" font-size="13" lengthAdjust="spacing" textLength="104.1968" x="686.2275" y="338.5903">&#1047;&#1072;&#1087;&#1088;&#1086;&#1089; &#1076;&#1072;&#1085;&#1085;&#1099;&#1093;</text></g><g class="message" data-participant-1="db" data-participant-2="client"><polygon fill="#181818" points="690.2275,368.7891,680.2275,372.7891,690.2275,376.7891,686.2275,372.7891" style="stroke:#181818;stroke-width:1;"/><line style="stroke:#181818;stroke-width:1;stroke-dasharray:2.0,2.0;" x1="684.2275" x2="807.4717" y1="372.7891" y2="372.7891"/><text fill="#000000" font-family="sans-serif" font-size="13" lengthAdjust="spacing" textLength="53.3838" x="696.2275" y="367.7231">&#1044;&#1072;&#1085;&#1085;&#1099;&#1077;</text></g><path d="M65.291,387.7891 L134.7422,387.7891 L134.7422,394.9219 L124.7422,404.9219 L65.291,404.9219 L65.291,387.7891" fill="#EEEEEE" style="stroke:#000000;stroke-width:1.5;"/><rect fill="none" height="89.3984" style="stroke:#000000;stroke-width:1.5;" width="778.958" x="65.291" y="387.7891"/><text fill="#000000" font-family="sans-serif" font-size="13" font-weight="bold" lengthAdjust="spacing" textLength="24.4512" x="80.291" y="400.856">opt</text><g class="message" data-participant-1="credit" data-participant-2="client"><polygon fill="#181818" points="667.2275,422.0547,677.2275,426.0547,667.2275,430.0547,671.2275,426.0547" style="stroke:#181818;stroke-width:1;"/><line style="stroke:#181818;stroke-width:1;" x1="201.519" x2="673.2275" y1="426.0547" y2="426.0547"/><text fill="#000000" font-family="sans-serif" font-size="13" lengthAdjust="spacing" textLength="161.2876" x="208.519" y="420.9888">&#1050;&#1086;&#1088;&#1088;&#1077;&#1082;&#1090;&#1080;&#1088;&#1086;&#1074;&#1082;&#1072; &#1076;&#1072;&#1085;&#1085;&#1099;&#1093;</text></g><g class="message" data-participant-1="client" data-participant-2="db"><polygon fill="#181818" points="796.4717,451.1875,806.4717,455.1875,796.4717,459.1875,800.4717,455.1875" style="stroke:#181818;stroke-width:1;"/><line style="stroke:#181818;stroke-width:1;" x1="679.2275" x2="802.4717" y1="455.1875" y2="455.1875"/><text fill="#000000" font-family="sans-serif" font-size="13" lengthAdjust="spacing" textLength="105.2441" x="686.2275" y="450.1216">&#1050;&#1086;&#1088;&#1088;&#1077;&#1082;&#1090;&#1080;&#1088;&#1086;&#1074;&#1082;&#1072;</text></g><g class="message" data-participant-1="db" data-participant-2="client"><polygon fill="#181818" points="690.2275,465.1875,680.2275,469.1875,690.2275,473.1875,686.2275,469.1875" style="stroke:#181818;stroke-width:1;"/><line style="stroke:#181818;stroke-width:1;stroke-dasharray:2.0,2.0;" x1="684.2275" x2="807.4717" y1="469.1875" y2="469.1875"/></g><g class="message" data-participant-1="credit" data-participant-2="client"><polygon fill="#181818" points="667.2275,501.3203,677.2275,505.3203,667.2275,509.3203,671.2275,505.3203" style="stroke:#181818;stroke-width:1;"/><line style="stroke:#181818;stroke-width:1;" x1="201.519" x2="673.2275" y1="505.3203" y2="505.3203"/><text fill="#000000" font-family="sans-serif" font-size="13" lengthAdjust="spacing" textLength="243.2295" x="208.519" y="500.2544">&#1055;&#1086;&#1076;&#1090;&#1074;&#1077;&#1088;&#1076;&#1080;&#1090;&#1100; &#1088;&#1072;&#1089;&#1089;&#1095;&#1080;&#1090;&#1072;&#1085;&#1085;&#1099;&#1077; &#1089;&#1090;&#1072;&#1074;&#1082;&#1080;</text></g><g class="message" data-participant-1="client" data-participant-2="db"><polygon fill="#181818" points="796.4717,515.3203,806.4717,519.3203,796.4717,523.3203,800.4717,519.3203" style="stroke:#181818;stroke-width:1;"/><line style="stroke:#181818;stroke-width:1;" x1="679.2275" x2="802.4717" y1="519.3203" y2="519.3203"/></g><g class="message" data-participant-1="db" data-participant-2="client"><polygon fill="#181818" points="690.2275,529.3203,680.2275,533.3203,690.2275,537.3203,686.2275,533.3203" style="stroke:#181818;stroke-width:1;"/><line style="stroke:#181818;stroke-width:1;stroke-dasharray:2.0,2.0;" x1="684.2275" x2="807.4717" y1="533.3203" y2="533.3203"/></g><g class="message" data-participant-1="db" data-participant-2="calc"><polygon fill="#181818" points="515.2114,558.4531,505.2114,562.4531,515.2114,566.4531,511.2114,562.4531" style="stroke:#181818;stroke-width:1;"/><line style="stroke:#181818;stroke-width:1;" x1="509.2114" x2="807.4717" y1="562.4531" y2="562.4531"/><text fill="#000000" font-family="sans-serif" font-size="13" lengthAdjust="spacing" textLength="243.9214" x="521.2114" y="557.3872">&#1057;&#1090;&#1072;&#1074;&#1082;&#1080; &#1088;&#1072;&#1089;&#1089;&#1095;&#1080;&#1090;&#1072;&#1085;&#1099;. &#1054;&#1087;&#1091;&#1073;&#1083;&#1080;&#1082;&#1086;&#1074;&#1072;&#1090;&#1100;.</text></g><g class="message" data-participant-1="calc" data-participant-2="kafka"><line style="stroke:#181818;stroke-width:1;" x1="871.9365" x2="861.9365" y1="591.5859" y2="587.5859"/><line style="stroke:#181818;stroke-width:1;" x1="871.9365" x2="861.9365" y1="591.5859" y2="595.5859"/><line style="stroke:#181818;stroke-width:1;" x1="504.2114" x2="872.9365" y1="591.5859" y2="591.5859"/><text fill="#000000" font-family="sans-serif" font-size="13" lengthAdjust="spacing" textLength="148.6494" x="511.2114" y="586.52">&#1054;&#1087;&#1091;&#1073;&#1083;&#1080;&#1082;&#1086;&#1074;&#1072;&#1090;&#1100; &#1089;&#1090;&#1072;&#1074;&#1082;&#1080;</text></g><!--SRC=[ZLJDRjD04BxlKunoJoMk77hXo84J3x2nNM7LnC7TIXppGyMXg824X5GX83o1Mn8HJEA-mkmRyStOYUqeaPg3jRipyyqttypaLHn6T9QcRf2-DSR5BedevRCdr2UU-tTS-Z6lUOLloVUS-wd_GBXESVqjJtxcRyXFy933NlWPyGENn0jUoe7_g7FEQsE2TEYoDA4U_yB3Ny0k_RX7ze9S_3hAZ0rSci4wHzAf7_iPG3QyueBaGH7_SKv8CiPnKRC0AV7o7nKfoA8mTWQr47_Yppmt8vkvE8X7TkY0_Ktmf1W_aUo8Nla9uP2ZXlTu0jUcd9AB2jKcmHxGBRYiG6FZftMcoZE9ew4peNLsO2yYwht8R914QWi79Xg693g_kOmkONnkpywjsixb9F932EgVQaPwIlmLF1wWyGGgu5FodRy6EPHRwTnc3ktRp8yreXs88-gl5RmncXNPmq6JMxKI677Q8FkLWRdVulXbQ-Bb3c5h-zdGwv3RIoKjln9A05fgqvVRqYIwObwdtyFHXcjAbLxGVjGDNbU3z5YaAlxnvU_ojGL8HyuGVeTutSeswV0MsiDgfmgPwJQ-Xk-HEHggtXr6CcI7PK7C0j7tElcwFrZcm-A8_hkbvbL7dAu0UciQFc-23a3xwnFYxpBHVASBL3H_AoVRcJYjja7GZhXskFq7]--></g></svg>